<?xml version="1.0" encoding="utf-8"?>
<!-- Generator: Adobe Illustrator 22.1.0, SVG Export Plug-In . SVG Version: 6.00 Build 0)  -->
<svg version="1.1" id="Ebene_1" xmlns="http://www.w3.org/2000/svg" xmlns:xlink="http://www.w3.org/1999/xlink" x="0px" y="0px"
	 viewBox="0 0 4244.8 1605.4" style="enable-background:new 0 0 4244.8 1605.4;" xml:space="preserve">
<style type="text/css">
	.st0{fill:#FFFFFF;}
</style>
<path class="st0" d="M2447,757.9c-2.3-91.2-2.4-182.5-1.6-273.7c0.1-10.3,3.2-13.1,13.3-12.8c34.7,0.9,69.4,1,104.1,1
	c8,0,9.6,2.5,9.6,10.5c-0.5,95.5-0.4,191.1-0.5,286.6c0,3-0.2,6,0.3,9c1,6.4-2.2,16.2,5,18.1c6.8,1.8,10.6-7.3,14.5-12.6
	c24.2-33.5,48.4-67,71.9-101c6-8.7,12.4-12.4,23.1-12.3c43.3,0.6,86.5,0.4,129.8,0.6c3.2,0,7.5-2.1,9.2,1.8c1.7,3.8-2.4,6-4.4,8.5
	c-40.2,51.7-81.5,102.6-120.1,155.5c-5.7,7.9-6,13.1-0.4,21.2c39.4,57.6,78.2,115.6,117.1,173.5c2.1,3.1,5.7,6.4,4.1,10.3
	c-1.9,4.5-6.7,2.1-10.3,2.1c-38.1,0-76.3-0.7-114.4,0.2c-13,0.3-20.2-4.4-26.9-14.8c-25.8-40.4-52.2-80.5-78.4-120.6
	c-3.5-5.4-6.9-10.8-10.9-15.9c-4.1-5.1-7.5-3.4-8.8,2.2c-0.9,3.7-0.7,7.7-0.7,11.5c-0.2,42-0.6,84-0.2,125.9
	c0.1,9-1.8,11.6-11.2,11.5c-33.8-0.6-67.7-0.4-101.5,0.2c-9.9,0.2-12.2-3.3-12.1-12.6C2447.1,940.3,2447,849.1,2447,757.9z"/>
<path class="st0" d="M3538.2,895.6c13.6-60,31.9-117,49.1-174.4c4-13.5,8.1-27.1,11.5-40.8c1.8-7.1,5.3-9.4,12.6-9.4
	c37.7,0.3,75.4,0.2,113.1-0.1c8.7-0.1,11.8,1.3,7.9,10.7c-46.6,111.8-83.2,227.5-130.3,339.1c-11.9,28.1-12.9,57.4-19.3,86
	c-8.5,38-22.6,72.6-54,98.1c-53.4,43.3-134.4,41.8-185.7-3.8c-13-11.5-12.7-12.1-3-26c13-18.6,25.6-37.4,38-56.5
	c5.7-8.9,11.3-9.4,18.1-1.7c2,2.2,4.4,4.1,6.7,6c26.2,22.5,48.2,17.4,61.2-14.5c8.1-19.9,10.7-41.4,15.7-62.2
	c1.5-6.1-1.3-11.7-3.9-17.2c-44.8-93.4-84.2-189.2-127.2-283.5c-9.2-20.3-18.8-40.3-27.9-60.7c-5.4-12.2-4.2-13.8,9.1-13.8
	c38.6,0,77.1,0.2,115.7-0.1c7.4-0.1,11.7,1.9,14.4,9.2c21.9,58.5,45.2,116.5,65.3,175.7C3529.4,868.6,3529.8,882.5,3538.2,895.6z"/>
<path class="st0" d="M2125,725.4c6.7-1.1,7.4-5.1,8.9-7.8c15.6-29.5,41.9-44,72.5-52.9c31-8.9,61.6-8.2,91.9,3.3
	c30.7,11.7,50,33.9,59.1,64.9c5.4,18.5,8.8,37.4,8.8,56.9c-0.2,81.4-0.1,162.8,0.2,244.2c0,7.6-1.6,10.3-10,10.2
	c-32.5-0.6-65.1-0.8-97.7-0.1c-11.2,0.2-14.8-2.8-14.8-14.3c0.3-66,0-131.9-0.4-197.9c-0.1-13.2,1-26.6-4.1-39.4
	c-11.1-27.8-37-35-61.3-17.2c-20,14.7-29.8,36-37.2,58.6c-5,15.1-7.2,30.8-7.1,46.8c0.3,50.5,0.2,101.1,0.8,151.6
	c0.1,8.5-1,12.2-10.9,12c-33-0.7-66-0.8-98.9-0.2c-10.7,0.2-13.8-3.1-13.8-13.7c0.2-96.4,0-192.8-0.4-289.1
	c-0.1-19.7-0.8-39.4-1.9-59.1c-0.4-8.4,2.3-11.2,10.8-11.1c31.7,0.4,63.4,0.4,95.1-0.1c9-0.2,10.7,3.3,10.4,11.3
	C2124.6,696.4,2125,710.6,2125,725.4z"/>
<path class="st0" d="M3223.5,1035c0.1,7.8-2.5,9.1-9.6,9c-34.3-0.4-68.6-0.5-102.8-0.1c-10,0.1-13.1-2.8-13.1-13.1
	c0.4-84-0.1-168,0.4-251.9c0.1-11.7-3.4-15.2-14.5-14c-7.6,0.9-15.4-0.3-23.1,0.3c-8.1,0.6-11.5-1.7-11.4-10.5
	c0.3-24.8,0-49.7-0.5-74.5c-0.2-7.2,1.9-10.2,9.3-9.8c9,0.5,18.1-0.4,27,0.5c10.9,1.1,15.1-1.8,14.4-13.8c-1.3-24.3-1-48.7,3.8-72.9
	c13.2-66.4,53.3-105.3,119.1-118.6c56.1-11.3,109.9-7.7,159.3,25c12.3,8.1,12.5,7.9,3.1,18.4c-19.4,21.7-38.6,43.6-57.5,65.7
	c-7,8.2-12,10.2-21.7,1.8c-24.2-21-48-21-66.3-2.3c-7.4,7.6-11.6,17-13.8,27.1c-4.2,19.8-5.2,39.9-5,60.1c0.1,7.4,3.3,9.4,10.3,9.2
	c22.3-0.4,44.6,0,66.8-0.3c7.6-0.1,10.4,1.9,10.3,10.1c-0.2,24.4,0.1,48.9,1.4,73.2c0.5,10.3-3.2,12.2-12.4,11.8
	c-19.3-0.6-38.6-0.3-57.8-0.3c-17,0-17,0.1-17,16.5"/>
<path class="st0" d="M1412.4,529.5c-0.1-11.2,1.9-15.7,14.5-15.3c36,1.1,72,1.1,108,0.5c10.3-0.2,13.2,2.2,13,12.6
	c-2.7,122.1-0.7,244.2-1.3,366.4c0,11-4.8,25,2.7,32c6.8,6.4,20.4,1.6,31,1.7c54.4,0.1,108.8-0.1,163.3-0.6c8.3-0.1,11,2,10.9,10.8
	c-0.7,32.1-0.7,64.3-0.4,96.4c0.1,7.8-2,10.2-10.1,10.2c-105.4-0.3-210.8-0.4-316.2,0c-11.4,0-13.5-4.5-13.5-14.5"/>
<path class="st0" d="M1801.9,681.4c-0.1-8.5,2.4-10.9,10.8-10.8c34.7,0.4,69.3,0.5,104,0c9-0.1,11.5,2.7,11.5,11.7
	c-0.3,116.4-0.2,232.9,0.1,349.3c0,9.2-1.8,12.6-12,12.4c-33.8-0.6-67.6-0.4-101.4,0.2c-9.6,0.2-12.4-2.7-12.4-12.3"/>
<path class="st0" d="M2869.4,682.9c-0.1-9.6,2.5-12.4,12.1-12.2c33.8,0.7,67.7,0.7,101.6,0.5c7.7,0,10.3,1.9,10.3,10.1
	c-0.4,116.1-0.6,232.2-0.1,348.4c0.1,12.6-3.5,14.7-15.1,14.4c-30.8-0.8-61.7-1-92.5,0.2c-13.9,0.5-16.1-4.4-16-16.8"/>
<path class="st0" d="M1232.2,886.9c-0.7,52.5-52.9,82.1-95.1,56.9c-9.5-5.7-16-5.3-25.4,0.3c-49.5,29.6-99.5,58.3-149.4,87.2
	c-18.9,10.9-37.9,9.3-56.2-1.4c-21-12.3-42.1-24.6-62.3-38.1c-21.7-14.5-22.7-38.9-26.4-61.6c-0.9-5.3,4.2-5.7,8-6
	c11.2-0.7,22-1.9,31.9-8.2c5.7-3.6,9.7-0.5,11.1,5.8c6.4,28.5,27.2,41.4,52.5,51c15.7,5.9,29,2.2,41.3-5.7
	c41.8-26.9,85.7-49.9,128.6-74.8c7.7-4.5,13.3-9.8,15.2-19.3c5.8-28.7,31.4-49,61.8-49.7c28.7-0.7,55.1,19.8,61.9,48.2
	C1231.2,877.7,1231.7,884.1,1232.2,886.9z M1211.1,889.1c0.3-22.4-19.4-42.5-42.2-43c-21.8-0.5-40.6,15.8-41.2,35.6
	c-0.8,26.3,16.7,48.2,38.9,48.6C1191.3,930.8,1210.8,912.7,1211.1,889.1z"/>
<path class="st0" d="M469.3,750.6c6.7,0.8,12.9-0.3,16.8,2.2c18.6,12.3,32.5,1.1,47.7-7.6c47.1-27.1,94.7-53.5,141.7-80.7
	c21-12.2,41.1-12.4,61.8,0.1c17.6,10.6,35.6,20.4,53.2,31c24.4,14.7,28.5,39.1,30.1,64.5c0.3,4.8-3.2,5.8-6.8,5.8
	c-12.4,0-23.4,4.9-34.1,10.2c-5.6,2.8-7.7,1.2-9.2-3.9c-0.3-1.2-0.8-2.5-0.9-3.7c-4.2-31.8-28.1-42.7-54.4-50.7
	c-9-2.7-17.8-0.5-26,4.1c-42.2,23.6-84.5,47.1-126.7,70.7c-1.5,0.8-2.8,2.2-4.4,2.7c-18.1,5.1-23.8,17.4-26.2,35.7
	c-4.2,32-42.3,56.4-82.7,44.1c-25.9-7.9-44.6-35-43.5-61.6c1.4-31.7,20.8-55.9,49.9-61.8C460.7,750.5,465.8,749.6,469.3,750.6z
	 M429.2,813.5c0.2,24.6,19.4,44,42.9,43.3c19.7-0.6,40.5-22.7,40.4-43c-0.1-21-21.9-40.3-45.3-40C445.2,774.1,429,790.9,429.2,813.5
	z"/>
<path class="st0" d="M961.2,1231.6c-34.2,0.6-59.7-23.9-65-63.3c-1.2-9-4.9-13.6-13-18.3c-50.7-29.2-101.9-57.7-150.9-89.8
	c-18.9-12.4-27-30.4-26.8-52.4c0.2-20.1,1.7-40.3,1.3-60.4c-0.5-28.3,20.3-42.9,37-60.2c3.5-3.6,5.7-1.1,8.2,1.9
	c8.6,10.6,16.5,22,30,27.3c5.4,2.2,2.3,5.4,0.2,8c-6.4,8-12.9,16-19.6,23.8c-4.7,5.5-7.7,11.6-6.9,18.7c2.7,26.6,9.6,50.8,35.2,65.6
	c43.3,25.1,87.8,48.3,129.3,76.3c5.7,3.9,11.4,2.3,17-0.5c34.9-17.2,68.2,3.6,80,29.2c17.1,37.2,5.2,72.5-28.5,88.7
	C980,1230.5,970.7,1231.3,961.2,1231.6z M961.1,1126.7c-22.4,0.1-42.2,19-42.1,40.1c0.1,23.8,20.2,44.5,42.9,44
	c21.3-0.5,41.7-20.7,41.4-41.2C1003.1,1146.1,983.8,1126.6,961.1,1126.7z"/>
<path class="st0" d="M995.7,713c0-28.3-0.1-56.5,0.1-84.8c0-5.4-2.5-8.5-6.6-11.5c-28.1-20.4-36.4-54-21-84
	c14.7-28.8,46.6-42.4,78.7-31.5c25.9,8.8,39.7,28.5,42.7,55.7c2.9,26.2-8.7,52.8-30.8,62.9c-11.8,5.4-10.4,12.1-10.1,22.1
	c1.1,33.8,0.8,67.7,0.9,101.5c0,23.6-0.1,47.1-0.5,70.7c-0.4,24.6-11.9,41.9-33.8,53.3c-16.7,8.7-32.4,19.1-48.8,28.3
	c-10.3,5.8-21.1,8.8-33.2,5.1c-11.4-3.5-23.3-5.8-34.9-8.7c-5.7-1.5-10-4.1-5.6-10.7c6.2-9.5,7.5-19.9,6.4-30.8
	c-1-9.6,4.1-12.3,12.5-10.8c6.7,1.2,13.9,1.7,20,4.4c11.4,4.9,21,2.2,29.9-4.8c20.1-15.8,36.8-33.1,34.6-62.1
	C994.4,756,995.7,734.5,995.7,713L995.7,713z M1024.7,604.9c24.3,0.5,43.1-17.9,43.5-42.6c0.4-22.8-17-40.7-40.2-41.2
	c-24.1-0.5-44.2,18.6-44.3,42.1C983.7,587.2,1000.6,604.4,1024.7,604.9z"/>
<path class="st0" d="M642.1,985.7c0,23.6,0.4,47.1-0.2,70.7c-0.2,9.4,2.1,15.5,10,21.5c19.8,14.7,30.3,34.1,27.6,59.9
	c-2.8,26.8-19.4,47.3-47.4,56c-20.3,6.4-50.6-3.5-65.1-21.1c-26-31.5-21.5-70.7,11.5-94c8.3-5.8,10.1-12.7,10.1-21.8
	c-0.1-56.1,1-112.3-0.1-168.4c-0.5-26.7,11-45.1,31.7-59.2c19.8-13.5,40.8-25.1,62.6-35.2c8.6-4,17.1-5,26.2-2.5
	c1.6,0.5,3.4,0.7,5,1.1c10.7,2.9,24.2,2.9,31.4,9.7c8.4,8-3.8,19.3-4.4,29.9c-1.1,20.6-2.7,23.2-22.2,18.5
	c-28.8-6.9-46.4,8.8-63.9,25.9c-8.8,8.6-11.9,20.6-11.8,33.1c0,25.3,0,50.6,0,75.8C642.8,985.7,642.5,985.7,642.1,985.7z
	 M656.7,1130.8c-0.3-23-17.3-41.8-39-40.7c-21.8,1.2-45.9,15.1-45.1,41.3c0.7,22.1,20,42.2,41.8,42.2
	C637.4,1173.7,657,1153.8,656.7,1130.8z"/>
<path class="st0" d="M933.6,707.3c0,6,0.1,12,0,18c-0.5,41.4-4,48.7-35,76.1c-4.7,4.2-7.7,4.2-11.3-0.9c-6-8.5-13.2-16-22.3-21
	c-10-5.5-8.6-9.7-1.8-17.2c23.5-26.1,25.3-56.8,5.4-83.8c-7.8-10.6-19.8-16.2-30.8-22.5c-39.6-22.9-79.7-44.8-118.2-69.5
	c-6.2-4-11.1-3.8-17.6,0c-31,18.4-74,5.2-91.4-27.6c-15.9-30.1-1.6-70.4,29.6-86.6c33.8-17.5,82.2-4.1,91.8,46.4
	c2.3,11.9,7.4,18.1,17.6,23.8c51.6,28.6,102.7,58,153.9,87.4c18.8,10.8,29.3,27.1,29.6,49.2c0.1,9.4,0,18.8,0,28.3
	C933.3,707.3,933.4,707.3,933.6,707.3z M627.5,529.9c-0.3,23.8,16.9,41.5,40.4,41.8c23.9,0.2,42-18.5,42.2-43.5
	c0.2-22.1-17.2-39.6-39.7-39.8C644.3,488,627.7,504.1,627.5,529.9z"/>
<path class="st0" d="M1866.6,473.3c38.3,0.2,67.2,29.7,66.8,68.1c-0.5,39.2-29.6,68.7-68,68.9c-39.5,0.3-69.7-30.5-69.1-70.4
	C1796.7,502.1,1827.4,473.1,1866.6,473.3z"/>
<path class="st0" d="M2930.3,610c-37.9,0-68.9-30.9-68.8-68.6c0.1-38.1,30.5-68.1,69.1-68s68.1,30.4,68.4,70.2
	C2999.2,581.2,2969.3,610,2930.3,610z"/>
<path class="st0" d="M693.9,1131.5c0.9-8,3.3-16.7,12.6-22c8.7-5,16.1-3.3,23.7,2.1c45.4,32.1,95.8,56.1,142.1,86.9
	c12.4,8.2,12.9,10.6,1.3,20.2c-24.5,20.2-42.5,22.7-70.5,7c-28.7-16.1-56.6-33.4-84.5-50.8C705.1,1166.5,694.1,1146.8,693.9,1131.5z
	"/>
<path class="st0" d="M1154.6,720.8c0,15,0.4,29.9-0.1,44.9c-0.7,22.2-15.8,42.9-35.1,49.2c-13.3,4.3-23.3-2.1-23.7-15.9
	c-1.7-59,0.2-118,1-177c0.2-14,2-14.4,15.4-9.5c29.7,10.8,41.7,33.6,43,63.4c0.6,14.9,0.1,29.9,0.1,44.9
	C1154.9,720.8,1154.8,720.8,1154.6,720.8z"/>
<path class="st0" d="M941.6,563.9c-0.2,20.9-11.5,27.3-30.5,16.5c-31.9-18.2-63.4-37.1-95.1-55.5c-16.2-9.5-32.7-18.4-48.8-28.1
	c-12-7.2-12.1-10.1-2.4-19.9c19.7-19.8,45.1-22.4,72.9-6.6c25.6,14.5,51,29.6,76.3,44.7C932.6,525.9,941.3,542.6,941.6,563.9z"/>
<path class="st0" d="M1167.3,996c2.7,28.2-15.3,47.8-41.6,61.8c-26,13.9-51.9,27.9-78.3,40.9c-17.3,8.5-43.4-0.2-54.1-16.7
	c-5.4-8.4-3.9-14.9,4.4-20.7c19-13.4,40.3-22.5,60.5-33.6c28.4-15.7,57.2-30.8,85.8-46.1c1.5-0.8,2.9-1.9,4.4-2.6
	C1165.1,971.2,1168.3,973.3,1167.3,996z"/>
<path class="st0" d="M471.8,696.1c-0.5-20.6,9-38.8,29.9-52.2c26.3-16.9,53.7-31.8,80.7-47.4c22.3-12.9,48.6-2.2,64.4,10.4
	c10,8,8.7,17.7-2.9,23.6c-52.7,26.6-102.7,58-154.5,86.2C475.7,724.1,471.6,720,471.8,696.1z"/>
<path class="st0" d="M821.9,902.6c-29.8,0.2-56.7-27.1-57.2-58.1c-0.4-26.7,26.9-54.2,53.7-53.9c29.5,0.3,57.7,27.1,57.8,54.9
	C876.2,875.6,850.7,902.4,821.9,902.6z"/>
<path class="st0" d="M540.2,978.6c0,29.9,0.3,59.8-0.1,89.8c-0.2,13.8-4.1,15.9-16.6,9.9c-22.1-10.5-36.5-27-37-52.4
	c-0.7-34.6-0.9-69.2-0.5-103.9c0.2-20.7,21.5-42.3,42.1-45.1c9.8-1.3,13.9,1.3,13.7,12c-0.6,29.9-0.2,59.8-0.2,89.8
	C541.1,978.6,540.7,978.6,540.2,978.6z"/>
</svg>
